<svg data-logo="logo" xmlns="http://www.w3.org/2000/svg" viewBox="0 0 135 42">
        <g style="opacity: 1;" id="logogram" transform="translate(0, 1) rotate(0)"><path d="M30 28V12C30 10.8954 29.1046 10 28 10H27.8994C27.369 10 26.8604 10.2109 26.4854 10.5859L10.5859 26.4854C10.2109 26.8604 10 27.369 10 27.8994V40H0V27.8994C2.15312e-05 24.7168 1.26423 21.6645 3.51465 19.4141L19.4141 3.51465C21.6645 1.26423 24.7168 2.1373e-05 27.8994 0H28C34.6274 0 40 5.37258 40 12V28C40 34.6274 34.6274 40 28 40H14V30H28C29.1046 30 30 29.1046 30 28Z M0 0H17L7 10H0V0Z" fill="#000000"></path></g>
        <g style="opacity: 1;" id="logotype" transform="translate(46, 8)"><path fill="#111111" d="M15.42 26.25L15.42 26.25Q12.86 26.25 10.95 24.91Q9.04 23.59 8.01 21.33Q6.98 19.07 6.98 16.23L6.98 16.23Q6.98 13.43 8.01 11.16Q9.04 8.88 10.95 7.55Q12.86 6.22 15.42 6.22L15.42 6.22Q17.66 6.22 19.32 7.43Q20.98 8.64 21.65 10.81L21.65 10.81L21.65 0.10L27.56 0.10L27.56 26L24.66 26Q23.26 26 22.45 25.21Q21.65 24.43 21.65 23.02L21.65 23.02L21.65 21.70Q20.98 23.83 19.32 25.04Q17.66 26.25 15.42 26.25ZM17.34 21.06L17.34 21.06Q18.50 21.06 19.48 20.50Q20.46 19.95 21.05 18.86Q21.65 17.77 21.65 16.23L21.65 16.23Q21.65 14.73 21.05 13.64Q20.46 12.56 19.48 11.96Q18.50 11.37 17.34 11.37L17.34 11.37Q16.15 11.37 15.17 11.96Q14.19 12.56 13.61 13.64Q13.04 14.73 13.04 16.23L13.04 16.23Q13.04 17.77 13.61 18.86Q14.19 19.95 15.19 20.50Q16.19 21.06 17.34 21.06ZM40.23 26.25L40.23 26.25Q38.09 26.25 36.15 25.58Q34.21 24.91 32.72 23.64Q31.23 22.36 30.38 20.54Q29.52 18.72 29.52 16.38L29.52 16.38Q29.52 14.13 30.34 12.28Q31.16 10.42 32.58 9.06Q34 7.69 35.87 6.96Q37.74 6.22 39.84 6.22L39.84 6.22Q41.56 6.22 43.12 6.68Q44.67 7.13 45.92 8.01Q47.16 8.88 47.88 10.07Q48.59 11.26 48.59 12.73L48.59 12.73Q48.59 14.59 47.55 15.81Q46.50 17.04 44.80 17.74Q43.10 18.44 41.09 18.74Q39.08 19.04 37.12 19L37.12 19Q36.87 19 36.54 18.98Q36.20 18.96 35.92 18.95Q35.64 18.93 35.51 18.93L35.51 18.93Q35.72 19.73 36.40 20.38Q37.08 21.03 38.13 21.41Q39.18 21.80 40.30 21.80L40.30 21.80Q41.42 21.80 42.45 21.41Q43.48 21.03 44.33 20.43Q45.16 19.84 45.76 19.11L45.76 19.11L49.54 22.08Q48.49 23.48 46.98 24.41Q45.48 25.34 43.75 25.79Q42.02 26.25 40.23 26.25ZM37.15 15.11L37.15 15.11Q38.09 15.11 39.11 15.01Q40.13 14.90 40.98 14.64Q41.84 14.38 42.38 13.91Q42.92 13.43 42.92 12.70L42.92 12.70Q42.92 12.10 42.51 11.65Q42.09 11.19 41.38 10.95Q40.69 10.70 39.88 10.70L39.88 10.70Q38.48 10.70 37.43 11.37Q36.38 12.03 35.82 13.03Q35.26 14.03 35.19 15.04L35.19 15.04Q35.51 15.08 36.05 15.10Q36.59 15.11 37.15 15.11ZM58.67 26.25L58.67 26.25Q56.54 26.25 54.77 25.58Q53.01 24.91 51.81 23.71Q50.63 22.50 50.10 20.93L50.10 20.93L55.56 19.70Q55.80 20.71 56.63 21.29Q57.45 21.87 58.64 21.87L58.64 21.87Q59.80 21.87 60.42 21.40Q61.05 20.93 61.05 20.26L61.05 20.26Q61.05 19.45 60.29 19.05Q59.52 18.65 58.27 18.37Q57.03 18.09 55.66 17.77Q54.30 17.46 53.08 16.85Q51.85 16.23 51.08 15.15Q50.31 14.06 50.31 12.31L50.31 12.31Q50.31 10.63 51.24 9.27Q52.16 7.90 53.93 7.06Q55.70 6.22 58.26 6.22L58.26 6.22Q60.39 6.22 62.02 6.89Q63.65 7.55 64.71 8.73Q65.78 9.90 66.23 11.51L66.23 11.51L61.02 12.87Q60.81 11.82 60.08 11.23Q59.34 10.63 58.12 10.63L58.12 10.63Q57.00 10.63 56.44 11.05Q55.88 11.47 55.88 12.17L55.88 12.17Q55.88 12.94 56.65 13.38Q57.41 13.82 58.64 14.10Q59.87 14.38 61.23 14.75Q62.59 15.11 63.82 15.74Q65.05 16.38 65.81 17.49Q66.59 18.61 66.59 20.40L66.59 20.40Q66.59 22.08 65.62 23.41Q64.66 24.74 62.88 25.49Q61.09 26.25 58.67 26.25ZM74.64 26L68.72 26L68.72 0.10L74.64 0.10L74.64 14.10Q76.25 13.75 77.70 12.66Q79.15 11.58 80.20 9.97Q81.25 8.36 81.64 6.47L81.64 6.47L87.90 6.47Q87.38 8.64 86.12 10.60Q84.86 12.56 83.19 14.03Q81.53 15.50 79.68 16.27L79.68 16.27Q81.11 16.62 82.48 17.56Q83.84 18.51 85.01 19.82Q86.19 21.13 87.01 22.73Q87.83 24.32 88.15 26L88.15 26L81.81 26Q81.50 24.50 80.80 23.22Q80.10 21.94 79.13 20.99Q78.17 20.05 77.02 19.45Q75.86 18.86 74.64 18.68L74.64 18.68L74.64 26Z"></path></g>
        
      </svg>